# xmcd
#
# Track frame offsets: 
#        150
#        22462
#        36252
#        49138
#        70673
#        85256
#        106489
#        125622
#        144743
#        163081
#        178740
#        195152
#        218028
#        243238
#        264494
#
# Disc length: 3733 seconds
#
# Revision: 1
# Processed by: cddbd v1.5.2PL0 Copyright (c) Steve Scherf et al.
# Submitted via: ExactAudioCopy v1.3
#
DISCID=db0e930f
DTITLE=Various Artist - Bone Rattlin' Blues
DYEAR=2007
DGENRE=Blues
TTITLE0=Pig Iron - Ruler Of Tomorrow
TTITLE1=Gary Moore - Hard Times
TTITLE2=Marc Ford - Just Take The Money
TTITLE3=Joe Bonamassa - Dirt In My Pocket
TTITLE4=Peter Green Splinter Group - The Supernatural
TTITLE5=Julian Sas - Moving To Survive
TTITLE6=Otis Taylor - Little Betty
TTITLE7=Aynsley Lister - Wherever I Am
TTITLE8=Gwyn Ashton - Guitar Town
TTITLE9=John Mayall - Palace Of The King
TTITLE10=Scott McKeon - Shot Down
TTITLE11=Rose Hill Drive - Intruder
TTITLE12=Ian Parker - Your Love Is My Home
TTITLE13=Last Supper - Money Honey
TTITLE14=Paul Rodgers - Louisiana Blues
EXTD=Classic Rock Magazine Summer 2007 #108 Free CD 
EXTT0=
EXTT1=
EXTT2=
EXTT3=
EXTT4=
EXTT5=
EXTT6=
EXTT7=
EXTT8=
EXTT9=
EXTT10=
EXTT11=
EXTT12=
EXTT13=
EXTT14=
PLAYORDER=
